<?xml version="1.0" encoding="UTF-8" standalone="no"?>
<svg
   width="30"
   height="30"
   fill="currentColor"
   class="bi bi-umbrella"
   viewBox="0 0 30 30"
   version="1.1"
   id="svg4"
   sodipodi:docname="logo.svg"
   inkscape:version="1.1.1 (3bf5ae0d25, 2021-09-20)"
   xmlns:inkscape="http://www.inkscape.org/namespaces/inkscape"
   xmlns:sodipodi="http://sodipodi.sourceforge.net/DTD/sodipodi-0.dtd"
   xmlns="http://www.w3.org/2000/svg"
   xmlns:svg="http://www.w3.org/2000/svg">
  <defs
     id="defs8" />
  <sodipodi:namedview
     id="namedview6"
     pagecolor="#ffffff"
     bordercolor="#999999"
     borderopacity="1"
     inkscape:pageshadow="0"
     inkscape:pageopacity="0"
     inkscape:pagecheckerboard="0"
     showgrid="false"
     width="30px"
     inkscape:zoom="13"
     inkscape:cx="9.6538462"
     inkscape:cy="19.269231"
     inkscape:window-width="1920"
     inkscape:window-height="1017"
     inkscape:window-x="1912"
     inkscape:window-y="-8"
     inkscape:window-maximized="1"
     inkscape:current-layer="svg4" />
  <path
     id="path1241"
     style="fill:#2f9fce;fill-opacity:1;stroke:none;stroke-width:2.63511;stroke-linecap:round;stroke-linejoin:bevel;stroke-miterlimit:4;stroke-dasharray:none"
     d="M 14.999999,0 A 14.999802,14.999802 0 0 0 0,15 14.999802,14.999802 0 0 0 14.999999,30 14.999802,14.999802 0 0 0 30,15 14.999802,14.999802 0 0 0 14.999999,0 Z m 0.506949,3.6489963 a 0.65877511,0.65877511 0 0 1 0.658774,0.6587751 v 0.6767885 c 5.434895,0.2951313 9.881627,4.2244976 9.881627,9.2048371 0,0 0,0.658775 -0.658775,0.658775 -0.196316,0 -0.465774,-0.190426 -0.465774,-0.190426 l -0.0051,-0.0051 -0.03088,-0.03088 a 4.5903449,4.5903448 0 0 0 -0.733402,-0.519763 4.171364,4.171364 0 0 0 -2.058672,-0.571282 c -0.840598,0 -1.552672,0.280104 -2.061246,0.571282 a 4.5903449,4.5903448 0 0 0 -0.730827,0.519815 l -0.03345,0.03088 -0.0051,0.0025 c 0,0 -0.266885,0.192999 -0.463201,0.192999 -0.196314,0 -0.465773,-0.190426 -0.465773,-0.190426 l -0.0051,-0.0051 -0.03088,-0.03088 a 4.5903449,4.5903448 0 0 0 -0.733253,-0.519742 4.3479158,4.3479157 0 0 0 -1.399898,-0.514667 v 7.848688 0.05147 l -0.0078,0.108079 a 3.8973135,3.8973135 0 0 1 -0.391148,1.453939 2.9737109,2.9737108 0 0 1 -1.006177,1.158002 c -0.492764,0.325435 -1.115428,0.522389 -1.888831,0.522389 -0.773401,0 -1.399958,-0.195637 -1.891404,-0.522389 A 2.9710758,2.9710757 0 0 1 9.9768405,23.04941 3.8973135,3.8973135 0 0 1 9.5779725,21.487392 v -0.03345 -0.01286 -0.0025 c 0,0 0,-0.0025 0.6587745,-0.0025 H 9.5779725 v -0.658776 a 0.65877511,0.65877511 0 0 1 1.3175485,0 v 0.666496 l 0.0025,0.05662 a 2.5797633,2.5797633 0 0 0 0.257334,0.957283 c 0.125166,0.251653 0.304127,0.484983 0.558414,0.65363 0.250334,0.167329 0.613855,0.30108 1.158003,0.30108 0.544149,0 0.907669,-0.133751 1.158004,-0.30108 0.254288,-0.168647 0.431929,-0.401977 0.558414,-0.65363 a 2.5797633,2.5797633 0 0 0 0.259907,-1.013896 v -7.856407 a 4.3479158,4.3479157 0 0 0 -1.40247,0.514668 4.5877099,4.5877098 0 0 0 -0.764282,0.550696 l -0.0051,0.0051 c 0,0 -0.265569,0.190427 -0.463202,0.190427 -0.196314,0 -0.465773,-0.190427 -0.465773,-0.190427 l -0.0051,-0.0051 A 4.5877099,4.5877098 0 0 0 10.977746,14.101905 4.171364,4.171364 0 0 0 8.9190747,13.530623 c -0.8405958,0 -1.551353,0.280103 -2.0612448,0.571282 a 4.5877099,4.5877098 0 0 0 -0.764282,0.550694 l -0.00515,0.0051 c 0,0 -0.2655688,0.190427 -0.4632014,0.190427 -0.6587751,0 -0.6587751,-0.658775 -0.6587751,-0.658775 0,-4.9803397 4.446731,-8.9097062 9.8816246,-9.2048374 V 4.3077714 a 0.65877511,0.65877511 0 0 1 0.658776,-0.6587751 z m 0,2.789501 C 14.323789,7.3765929 13.615707,8.7293662 13.224396,10.13124 a 11.445559,11.445559 0 0 0 -0.404016,2.807514 v 0.0025 a 5.4810089,5.4810088 0 0 1 2.686568,-0.728256 5.4810089,5.4810088 0 0 1 2.683994,0.728256 11.446876,11.446876 0 0 0 -0.404016,-2.807514 C 17.395615,8.730596 16.690108,7.3778838 15.506948,6.4384707 Z m -1.875966,0.00772 C 9.8983629,7.1049922 7.0556057,9.6841177 6.4179108,12.840968 a 5.4335771,5.433577 0 0 1 2.5012859,-0.627896 c 1.0619458,0 1.9485753,0.327761 2.5836343,0.671643 a 12.788143,12.788142 0 0 1 0.452906,-3.1060223 c 0.318849,-1.1436335 0.843871,-2.3245496 1.675245,-3.3324764 z m 3.749358,0 c 0.831374,1.007926 1.356396,2.1888419 1.675244,3.3324754 0.306989,1.0975203 0.431827,2.1863723 0.452907,3.1060223 a 5.4546579,5.4546578 0 0 1 2.586206,-0.671642 c 1.014515,0 1.870244,0.30246 2.498715,0.627895 C 23.955717,9.6841199 21.112958,7.1036771 17.38034,6.4462196 Z" />
</svg>
